<svg width="305" height="76" viewBox="0 0 305 76" fill="none" xmlns="http://www.w3.org/2000/svg">
<path d="M27.8359 20.0234V18.0234H26.3738L25.9302 19.4167L27.8359 20.0234ZM36.3945 20.0234L38.2881 20.6672L39.1868 18.0234H36.3945V20.0234ZM22.8047 60V62H24.2372L24.6983 60.6437L22.8047 60ZM13.5625 60L11.6685 60.6426L12.1291 62H13.5625V60ZM0 20.0234V18.0234H-2.79049L-1.89397 20.666L0 20.0234ZM8.55859 20.0234L10.4656 19.4207L10.0239 18.0234H8.55859V20.0234ZM16.0781 43.8125L17.9945 43.2401L17.9899 43.2249L17.9851 43.2097L16.0781 43.8125ZM17.3633 48.7344L15.4155 49.1882L15.4181 49.1994L15.4208 49.2105L17.3633 48.7344ZM18.2109 52.6172L16.2331 52.9139L20.1968 52.8546L18.2109 52.6172ZM20.2617 43.8125L18.356 43.2057L18.3448 43.2408L18.3349 43.2763L20.2617 43.8125ZM27.8359 22.0234H36.3945V18.0234H27.8359V22.0234ZM34.501 19.3797L20.9111 59.3563L24.6983 60.6437L38.2881 20.6672L34.501 19.3797ZM22.8047 58H13.5625V62H22.8047V58ZM15.4565 59.3574L1.89397 19.3809L-1.89397 20.666L11.6685 60.6426L15.4565 59.3574ZM0 22.0234H8.55859V18.0234H0V22.0234ZM6.65159 20.6262L14.1711 44.4153L17.9851 43.2097L10.4656 19.4207L6.65159 20.6262ZM14.1618 44.3849C14.5664 45.7394 14.9845 47.3388 15.4155 49.1882L19.3111 48.2805C18.867 46.3747 18.4284 44.6929 17.9945 43.2401L14.1618 44.3849ZM15.4208 49.2105C15.8778 51.075 16.139 52.2867 16.2331 52.9139L20.1888 52.3205C20.0641 51.4893 19.7603 50.1125 19.3058 48.2583L15.4208 49.2105ZM20.1968 52.8546C20.3769 51.3481 21.0197 48.5492 22.1885 44.3487L18.3349 43.2763C17.1704 47.4612 16.446 50.5321 16.2251 52.3797L20.1968 52.8546ZM22.1675 44.4193L29.7417 20.6302L25.9302 19.4167L18.356 43.2057L22.1675 44.4193ZM65.9258 60L64.0126 60.5828L64.4443 62H65.9258V60ZM63.0273 50.4844L64.9406 49.9016L64.5089 48.4844H63.0273V50.4844ZM48.4531 50.4844V48.4844H46.9716L46.5399 49.9016L48.4531 50.4844ZM45.5547 60V62H47.0362L47.4679 60.5828L45.5547 60ZM36.4219 60L34.535 59.3368L33.5989 62H36.4219V60ZM50.5312 19.8594V17.8594H49.1143L48.6444 19.1962L50.5312 19.8594ZM60.8945 19.8594L62.7806 19.1939L62.3097 17.8594H60.8945V19.8594ZM75.0586 60V62H77.8852L76.9446 59.3345L75.0586 60ZM61.0039 43.375V45.375H63.7198L62.9138 42.7814L61.0039 43.375ZM56.4648 28.7461L54.5442 29.3037L54.5483 29.3179L54.5526 29.3321L56.4648 28.7461ZM55.7539 26.0664L57.7063 25.6325L53.8172 25.5671L55.7539 26.0664ZM50.5859 43.375L48.675 42.7847L47.8749 45.375H50.5859V43.375ZM67.839 59.4172L64.9406 49.9016L61.1141 51.0671L64.0126 60.5828L67.839 59.4172ZM63.0273 48.4844H48.4531V52.4844H63.0273V48.4844ZM46.5399 49.9016L43.6415 59.4172L47.4679 60.5828L50.3663 51.0671L46.5399 49.9016ZM45.5547 58H36.4219V62H45.5547V58ZM38.3087 60.6632L52.4181 20.5226L48.6444 19.1962L34.535 59.3368L38.3087 60.6632ZM50.5312 21.8594H60.8945V17.8594H50.5312V21.8594ZM59.0085 20.5249L73.1726 60.6655L76.9446 59.3345L62.7806 19.1939L59.0085 20.5249ZM75.0586 58H65.9258V62H75.0586V58ZM62.9138 42.7814C60.2332 34.1562 58.7219 29.2854 58.3771 28.1601L54.5526 29.3321C54.9005 30.4672 56.4152 35.349 59.094 43.9686L62.9138 42.7814ZM58.3855 28.1885C58.0619 27.0738 57.8385 26.2276 57.7063 25.6325L53.8015 26.5003C53.961 27.2177 54.2115 28.158 54.5442 29.3037L58.3855 28.1885ZM53.8172 25.5671C53.2302 27.8443 51.524 33.5621 48.675 42.7847L52.4968 43.9653C55.3354 34.7764 57.0745 28.9552 57.6906 26.5657L53.8172 25.5671ZM50.5859 45.375H61.0039V41.375H50.5859V45.375ZM80.1172 60H78.1172V62H80.1172V60ZM80.1172 20.0234V18.0234H78.1172V20.0234H80.1172ZM88.5938 20.0234H90.5938V18.0234H88.5938V20.0234ZM88.5938 53H86.5938V55H88.5938V53ZM104.809 53H106.809V51H104.809V53ZM104.809 60V62H106.809V60H104.809ZM82.1172 60V20.0234H78.1172V60H82.1172ZM80.1172 22.0234H88.5938V18.0234H80.1172V22.0234ZM86.5938 20.0234V53H90.5938V20.0234H86.5938ZM88.5938 55H104.809V51H88.5938V55ZM102.809 53V60H106.809V53H102.809ZM104.809 58H80.1172V62H104.809V58ZM114.926 24.6719L113.467 23.3037L113.467 23.304L114.926 24.6719ZM143.172 24.6992L141.698 26.0514L141.702 26.0555L143.172 24.6992ZM121.461 29.8672L123.055 31.0754L123.059 31.0692L121.461 29.8672ZM146.066 39.957C146.066 46.2585 144.507 50.7907 141.675 53.8583L144.614 56.5714C148.345 52.5296 150.066 46.8899 150.066 39.957H146.066ZM141.675 53.8583C138.868 56.8994 134.76 58.5469 129.035 58.5469V62.5469C135.56 62.5469 140.859 60.6396 144.614 56.5714L141.675 53.8583ZM129.035 58.5469C123.31 58.5469 119.203 56.8994 116.395 53.8583L113.456 56.5714C117.211 60.6396 122.51 62.5469 129.035 62.5469V58.5469ZM116.395 53.8583C113.565 50.7926 112.004 46.2437 112.004 39.9023H108.004C108.004 46.8682 109.724 52.5278 113.456 56.5714L116.395 53.8583ZM112.004 39.9023C112.004 33.5585 113.566 29.0461 116.385 26.0398L113.467 23.304C109.723 27.2977 108.004 32.9389 108.004 39.9023H112.004ZM116.385 26.04C119.209 23.0286 123.339 21.3945 129.09 21.3945V17.3945C122.554 17.3945 117.242 19.2786 113.467 23.3037L116.385 26.04ZM129.09 21.3945C134.839 21.3945 138.932 23.0363 141.698 26.0514L144.646 23.3471C140.922 19.2892 135.627 17.3945 129.09 17.3945V21.3945ZM141.702 26.0555C144.513 29.1022 146.066 33.6322 146.066 39.957H150.066C150.066 33.0111 148.357 27.3692 144.642 23.343L141.702 26.0555ZM116.891 39.957C116.891 44.6221 117.767 48.491 119.834 51.2469L123.034 48.8469C121.71 47.0819 120.891 44.2243 120.891 39.957H116.891ZM119.834 51.2469C121.982 54.1114 125.17 55.4375 129.035 55.4375V51.4375C126.155 51.4375 124.276 50.5032 123.034 48.8469L119.834 51.2469ZM129.035 55.4375C132.902 55.4375 136.095 54.123 138.242 51.27C140.308 48.524 141.18 44.6439 141.18 39.957H137.18C137.18 44.2571 136.361 47.1172 135.046 48.8648C133.811 50.5053 131.931 51.4375 129.035 51.4375V55.4375ZM141.18 39.957C141.18 35.2634 140.313 31.3789 138.26 28.6293C136.124 25.7701 132.944 24.4492 129.09 24.4492V28.4492C131.962 28.4492 133.827 29.3796 135.055 31.0231C136.364 32.7761 137.18 35.6455 137.18 39.957H141.18ZM129.09 24.4492C125.219 24.4492 122.026 25.7887 119.862 28.6651L123.059 31.0692C124.323 29.3884 126.216 28.4492 129.09 28.4492V24.4492ZM119.867 28.659C117.777 31.4161 116.891 35.2886 116.891 39.957H120.891C120.891 35.6932 121.718 32.8391 123.055 31.0754L119.867 28.659ZM164.828 37.7695H162.828V39.7695H164.828V37.7695ZM173.441 28.1719L172.388 29.8719L172.399 29.8784L173.441 28.1719ZM164.828 26.9688V24.9688H162.828V26.9688H164.828ZM164.828 44.6602V42.6602H162.828V44.6602H164.828ZM164.828 60V62H166.828V60H164.828ZM156.352 60H154.352V62H156.352V60ZM156.352 20.0234V18.0234H154.352V20.0234H156.352ZM180.059 23.0039L178.846 24.5945L178.853 24.5999L180.059 23.0039ZM182.027 38.2891L183.658 39.4469L183.664 39.4392L182.027 38.2891ZM176.531 42.582L175.728 40.7504L173.541 41.7095L174.869 43.6945L176.531 42.582ZM188.289 60V62H192.113L189.932 58.8592L188.289 60ZM178.883 60L177.185 61.0565L177.772 62H178.883V60ZM169.34 44.6602L171.038 43.6037L170.451 42.6602H169.34V44.6602ZM164.828 39.7695H167.562V35.7695H164.828V39.7695ZM167.562 39.7695C170.389 39.7695 172.865 39.3124 174.643 38.0681L172.349 34.7912C171.575 35.3334 170.095 35.7695 167.562 35.7695V39.7695ZM174.643 38.0681C176.578 36.7134 177.41 34.6167 177.41 32.2188H173.41C173.41 33.6489 172.966 34.3596 172.349 34.7912L174.643 38.0681ZM177.41 32.2188C177.41 29.8137 176.536 27.7188 174.484 26.4653L172.399 29.8784C172.972 30.2291 173.41 30.8321 173.41 32.2188H177.41ZM174.495 26.4719C172.721 25.3725 170.249 24.9688 167.398 24.9688V28.9688C170.016 28.9688 171.573 29.3671 172.388 29.8719L174.495 26.4719ZM167.398 24.9688H164.828V28.9688H167.398V24.9688ZM162.828 26.9688V37.7695H166.828V26.9688H162.828ZM162.828 44.6602V60H166.828V44.6602H162.828ZM164.828 58H156.352V62H164.828V58ZM158.352 60V20.0234H154.352V60H158.352ZM156.352 22.0234H168V18.0234H156.352V22.0234ZM168 22.0234C173.257 22.0234 176.751 22.9976 178.846 24.5945L181.271 21.4133C178.153 19.0363 173.607 18.0234 168 18.0234V22.0234ZM178.853 24.5999C180.843 26.1023 181.969 28.4357 181.969 32H185.969C185.969 27.507 184.488 23.843 181.264 21.4079L178.853 24.5999ZM181.969 32C181.969 33.9595 181.438 35.6503 180.391 37.1389L183.664 39.4392C185.206 37.2456 185.969 34.7436 185.969 32H181.969ZM180.397 37.1312C179.343 38.6148 177.819 39.8335 175.728 40.7504L177.334 44.4137C179.983 43.2524 182.123 41.6092 183.658 39.4469L180.397 37.1312ZM174.869 43.6945C180.882 52.6779 184.812 58.499 186.646 61.1408L189.932 58.8592C188.121 56.251 184.211 50.4601 178.193 41.4695L174.869 43.6945ZM188.289 58H178.883V62H188.289V58ZM180.581 58.9435L171.038 43.6037L167.642 45.7166L177.185 61.0565L180.581 58.9435ZM169.34 42.6602H164.828V46.6602H169.34V42.6602ZM217.793 60L215.88 60.5828L216.311 62H217.793V60ZM214.895 50.4844L216.808 49.9016L216.376 48.4844H214.895V50.4844ZM200.32 50.4844V48.4844H198.839L198.407 49.9016L200.32 50.4844ZM197.422 60V62H198.903L199.335 60.5828L197.422 60ZM188.289 60L186.402 59.3368L185.466 62H188.289V60ZM202.398 19.8594V17.8594H200.981L200.512 19.1962L202.398 19.8594ZM212.762 19.8594L214.648 19.1939L214.177 17.8594H212.762V19.8594ZM226.926 60V62H229.752L228.812 59.3345L226.926 60ZM212.871 43.375V45.375H215.587L214.781 42.7814L212.871 43.375ZM208.332 28.7461L206.411 29.3037L206.415 29.3179L206.42 29.3321L208.332 28.7461ZM207.621 26.0664L209.573 25.6325L205.684 25.5671L207.621 26.0664ZM202.453 43.375L200.542 42.7847L199.742 45.375H202.453V43.375ZM219.706 59.4172L216.808 49.9016L212.981 51.0671L215.88 60.5828L219.706 59.4172ZM214.895 48.4844H200.32V52.4844H214.895V48.4844ZM198.407 49.9016L195.509 59.4172L199.335 60.5828L202.234 51.0671L198.407 49.9016ZM197.422 58H188.289V62H197.422V58ZM190.176 60.6632L204.285 20.5226L200.512 19.1962L186.402 59.3368L190.176 60.6632ZM202.398 21.8594H212.762V17.8594H202.398V21.8594ZM210.876 20.5249L225.04 60.6655L228.812 59.3345L214.648 19.1939L210.876 20.5249ZM226.926 58H217.793V62H226.926V58ZM214.781 42.7814C212.1 34.1562 210.589 29.2854 210.244 28.1601L206.42 29.3321C206.768 30.4672 208.282 35.349 210.961 43.9686L214.781 42.7814ZM210.253 28.1885C209.929 27.0738 209.706 26.2276 209.573 25.6325L205.669 26.5003C205.828 27.2177 206.079 28.158 206.411 29.3037L210.253 28.1885ZM205.684 25.5671C205.097 27.8443 203.391 33.5621 200.542 42.7847L204.364 43.9653C207.203 34.7764 208.942 28.9552 209.558 26.5657L205.684 25.5671ZM202.453 45.375H212.871V41.375H202.453V45.375ZM267.449 60V62H269.449V60H267.449ZM256.676 60L254.942 60.997L255.519 62H256.676V60ZM239.285 29.7578L241.019 28.7608L240.442 27.7578H239.285V29.7578ZM239.039 29.7578V27.7578H236.905L237.043 29.8872L239.039 29.7578ZM239.559 60V62H241.559V60H239.559ZM231.984 60H229.984V62H231.984V60ZM231.984 20.0234V18.0234H229.984V20.0234H231.984ZM242.676 20.0234L244.406 19.0201L243.828 18.0234H242.676V20.0234ZM260.039 49.9648L258.309 50.9682L258.887 51.9648H260.039V49.9648ZM260.23 49.9648V51.9648H262.339L262.228 49.8597L260.23 49.9648ZM259.82 20.0234V18.0234H257.82V20.0234H259.82ZM267.449 20.0234H269.449V18.0234H267.449V20.0234ZM267.449 58H256.676V62H267.449V58ZM258.41 59.003L241.019 28.7608L237.551 30.7548L254.942 60.997L258.41 59.003ZM239.285 27.7578H239.039V31.7578H239.285V27.7578ZM237.043 29.8872C237.39 35.227 237.559 38.9798 237.559 41.1875H241.559C241.559 38.8379 241.381 34.9709 241.035 29.6284L237.043 29.8872ZM237.559 41.1875V60H241.559V41.1875H237.559ZM239.559 58H231.984V62H239.559V58ZM233.984 60V20.0234H229.984V60H233.984ZM231.984 22.0234H242.676V18.0234H231.984V22.0234ZM240.946 21.0268L258.309 50.9682L261.769 48.9615L244.406 19.0201L240.946 21.0268ZM260.039 51.9648H260.23V47.9648H260.039V51.9648ZM262.228 49.8597C261.954 44.6643 261.82 41.0382 261.82 38.9453H257.82C257.82 41.1545 257.96 44.8747 258.233 50.07L262.228 49.8597ZM261.82 38.9453V20.0234H257.82V38.9453H261.82ZM259.82 22.0234H267.449V18.0234H259.82V22.0234ZM265.449 20.0234V60H269.449V20.0234H265.449ZM292.961 60V62H294.961V60H292.961ZM284.484 60H282.484V62H284.484V60ZM284.484 27.0781H286.484V25.0781H284.484V27.0781ZM273.629 27.0781H271.629V29.0781H273.629V27.0781ZM273.629 20.0234V18.0234H271.629V20.0234H273.629ZM303.816 20.0234H305.816V18.0234H303.816V20.0234ZM303.816 27.0781V29.0781H305.816V27.0781H303.816ZM292.961 27.0781V25.0781H290.961V27.0781H292.961ZM292.961 58H284.484V62H292.961V58ZM286.484 60V27.0781H282.484V60H286.484ZM284.484 25.0781H273.629V29.0781H284.484V25.0781ZM275.629 27.0781V20.0234H271.629V27.0781H275.629ZM273.629 22.0234H303.816V18.0234H273.629V22.0234ZM301.816 20.0234V27.0781H305.816V20.0234H301.816ZM303.816 25.0781H292.961V29.0781H303.816V25.0781ZM290.961 27.0781V60H294.961V27.0781H290.961Z" fill="white"/>
</svg>
